<?xml version="1.0" encoding="UTF-8" standalone="no"?>
<!-- Created with Inkscape (http://www.inkscape.org/) -->

<svg
   version="1.1"
   id="svg1"
   width="800"
   height="800"
   viewBox="0 0 800 800"
   sodipodi:docname="Archery_Trainer_Logo_Inkscape.svg"
   inkscape:version="1.4.4 (dcaf3e7d9e, 2026-05-05)"
   xmlns:inkscape="http://www.inkscape.org/namespaces/inkscape"
   xmlns:sodipodi="http://sodipodi.sourceforge.net/DTD/sodipodi-0.dtd"
   xmlns="http://www.w3.org/2000/svg"
   xmlns:svg="http://www.w3.org/2000/svg">
  <defs
     id="defs1" />
  <sodipodi:namedview
     id="namedview1"
     pagecolor="#ffffff"
     bordercolor="#000000"
     borderopacity="0.25"
     inkscape:showpageshadow="2"
     inkscape:pageopacity="0.0"
     inkscape:pagecheckerboard="true"
     inkscape:deskcolor="#d1d1d1"
     showgrid="false"
     inkscape:zoom="0.86328125"
     inkscape:cx="512"
     inkscape:cy="512"
     inkscape:window-width="1920"
     inkscape:window-height="1128"
     inkscape:window-x="0"
     inkscape:window-y="0"
     inkscape:window-maximized="1"
     inkscape:current-layer="g1" />
  <g
     inkscape:groupmode="layer"
     inkscape:label="Image"
     id="g1">
    <g
       id="g2"
       transform="translate(-112.00572,-112.08591)">
      <path
         style="fill:#efb419"
         d="M 482.5,858.92673 C 415.10114,852.68925 348.77452,825.91085 295.5,783.42822 280.65665,771.59172 249.49064,740.14298 238.58806,726 196.83641,671.8392 173.91494,615.61142 165.82187,547.5 c -1.95283,-16.43499 -1.64902,-57.68453 0.55239,-75 12.83169,-100.92953 63.68992,-186.10792 146.37346,-245.14924 46.9542,-33.5283 103.15918,-54.64023 163.75228,-61.50929 16.69957,-1.89312 58.00712,-1.62654 75.5,0.48725 78.51042,9.48697 148.93795,43.71031 205.06988,99.65103 26.0258,25.93715 45.05519,51.34736 61.11656,81.60978 21.23812,40.01633 33.05361,77.14904 39.42788,123.91047 2.47357,18.14611 2.50355,62.61616 0.0546,81 -5.32612,39.9822 -15.72551,75.33012 -32.0679,109 -23.57185,48.56461 -55.5945,88.66848 -97.60101,122.23158 -50.40058,40.26994 -109.85642,65.3534 -175,73.8297 -14.78579,1.92388 -55.86816,2.71957 -70.5,1.36545 z m 56.07632,-71.00178 C 561.8153,785.6379 590.27466,778.79903 612,770.28101 701.47437,735.20013 767.3558,655.60304 784.39139,562 c 5.03275,-27.65273 5.81918,-59.41789 2.14089,-86.47386 C 779.70361,425.29721 759.31581,377.90282 727.37221,338 718.62897,327.07825 696.92175,305.37103 686,296.62779 651.69699,269.16703 609.94559,249.29347 568.46098,240.6795 546.27611,236.07298 539.86051,235.49679 511.5,235.56374 c -36.12072,0.0853 -54.90448,3.01951 -87.27162,13.63287 -15.30492,5.01856 -51.36727,21.85597 -54.24963,25.32899 -1.16701,1.40616 1.34846,4.28674 20.3448,23.29781 L 412,319.51667 v 5.24167 c 0,2.88291 0.16716,5.24166 0.37147,5.24166 0.20431,0 5.04181,-2.21976 10.75,-4.9328 58.35747,-27.73665 127.95587,-26.43465 184.60433,3.45347 62.60444,33.03053 103.48109,93.87113 110.39778,164.31548 3.04927,31.05594 -2.13423,67.04812 -13.77726,95.66385 C 671.03846,670.36257 591.14596,722.2726 504,718.67471 390.0526,713.97032 301.06387,618.26432 305.32236,505 c 1.15214,-30.64355 8.5038,-59.90277 21.53966,-85.72667 C 328.58791,415.85437 330,412.8192 330,412.52852 330,412.23783 327.64125,412 324.75834,412 h -5.24167 l -21.7941,-21.75 -21.79411,-21.75 -1.9315,2.5 c -2.9372,3.80171 -13.31865,24.28923 -17.85267,35.23177 -8.71133,21.02422 -15.57209,46.5787 -18.83681,70.16203 -2.07435,14.98454 -2.36194,53.6692 -0.5026,67.6062 8.62695,64.66445 35.29047,119.19967 80.18338,164 23.75891,23.70992 47.4928,40.38446 78.0503,54.83522 25.79667,12.19935 56.283,21.04998 82.96144,24.08493 5.225,0.5944 10.85,1.2381 12.5,1.43045 7.14438,0.83288 38.07051,0.55907 48.07632,-0.42565 z M 522.84907,496.25 c -4.87645,-19.6625 -9.00152,-36.16736 -9.16682,-36.67746 -0.16531,-0.51011 -4.49538,3.25539 -9.62239,8.36778 l -9.32184,9.29524 -50.33447,-50.36778 -50.33447,-50.36778 -0.68691,-24.65808 -0.68691,-24.65809 -32.19492,-32.18349 -32.19493,-32.1835 -1.29641,30.96821 -1.29641,30.96821 -6.1063,0.59192 c -3.35846,0.32556 -15.78129,1.07811 -27.60629,1.67235 -11.825,0.59423 -23.03785,1.3179 -24.91744,1.60817 l -3.41745,0.52775 31.79084,31.80248 31.79083,31.80248 24.38759,0.41484 24.38759,0.41485 48.68513,48.45595 c 26.77682,26.65077 49.59191,49.54774 50.7002,50.88215 l 2.01507,2.4262 -9.38669,8.8238 c -5.16268,4.85309 -9.19521,8.85176 -8.96118,8.88594 0.23403,0.0342 16.17551,4.26733 35.42551,9.40701 19.25,5.13968 35.49845,9.38672 36.10767,9.43786 0.65006,0.0546 -2.55522,-14.67626 -7.7586,-35.65701 z"
         id="path3" />
      <path
         style="fill:#0e6eb2"
         d="M 482.5,858.92673 C 415.10114,852.68925 348.77452,825.91085 295.5,783.42822 280.65665,771.59172 249.49064,740.14298 238.58806,726 196.83641,671.8392 173.91494,615.61142 165.82187,547.5 c -1.95283,-16.43499 -1.64902,-57.68453 0.55239,-75 12.83169,-100.92953 63.68992,-186.10792 146.37346,-245.14924 46.9542,-33.5283 103.15918,-54.64023 163.75228,-61.50929 16.69957,-1.89312 58.00712,-1.62654 75.5,0.48725 78.51042,9.48697 148.93795,43.71031 205.06988,99.65103 26.0258,25.93715 45.05519,51.34736 61.11656,81.60978 21.23812,40.01633 33.05361,77.14904 39.42788,123.91047 2.47357,18.14611 2.50355,62.61616 0.0546,81 -5.32612,39.9822 -15.72551,75.33012 -32.0679,109 -23.57185,48.56461 -55.5945,88.66848 -97.60101,122.23158 -50.40058,40.26994 -109.85642,65.3534 -175,73.8297 -14.78579,1.92388 -55.86816,2.71957 -70.5,1.36545 z m 56.07632,-71.00178 C 561.8153,785.6379 590.27466,778.79903 612,770.28101 701.47437,735.20013 767.3558,655.60304 784.39139,562 c 5.03275,-27.65273 5.81918,-59.41789 2.14089,-86.47386 C 779.70361,425.29721 759.31581,377.90282 727.37221,338 718.62897,327.07825 696.92175,305.37103 686,296.62779 651.69699,269.16703 609.94559,249.29347 568.46098,240.6795 546.27611,236.07298 539.86051,235.49679 511.5,235.56374 c -36.12072,0.0853 -54.90448,3.01951 -87.27162,13.63287 -15.30492,5.01856 -51.36727,21.85597 -54.24963,25.32899 -1.16701,1.40616 1.34846,4.28674 20.3448,23.29781 L 412,319.51667 v 5.24167 c 0,2.88291 0.16716,5.24166 0.37147,5.24166 0.20431,0 5.04181,-2.21976 10.75,-4.9328 58.35747,-27.73665 127.95587,-26.43465 184.60433,3.45347 62.60444,33.03053 103.48109,93.87113 110.39778,164.31548 3.04927,31.05594 -2.13423,67.04812 -13.77726,95.66385 C 671.03846,670.36257 591.14596,722.2726 504,718.67471 390.0526,713.97032 301.06387,618.26432 305.32236,505 c 1.15214,-30.64355 8.5038,-59.90277 21.53966,-85.72667 C 328.58791,415.85437 330,412.8192 330,412.52852 330,412.23783 327.64125,412 324.75834,412 h -5.24167 l -21.7941,-21.75 -21.79411,-21.75 -1.9315,2.5 c -2.9372,3.80171 -13.31865,24.28923 -17.85267,35.23177 -8.71133,21.02422 -15.57209,46.5787 -18.83681,70.16203 -2.07435,14.98454 -2.36194,53.6692 -0.5026,67.6062 8.62695,64.66445 35.29047,119.19967 80.18338,164 23.75891,23.70992 47.4928,40.38446 78.0503,54.83522 25.79667,12.19935 56.283,21.04998 82.96144,24.08493 5.225,0.5944 10.85,1.2381 12.5,1.43045 7.14438,0.83288 38.07051,0.55907 48.07632,-0.42565 z m 0.43582,-141.97697 c 39.45078,-7.90217 73.91674,-33.66633 93.71088,-70.05121 4.14748,-7.62375 9.73951,-22.00858 11.62222,-29.89677 3.44179,-14.42048 3.9927,-19.14117 3.96782,-34 -0.0268,-16.00373 -1.94858,-28.91837 -6.24988,-42 -14.02077,-42.64165 -49.33633,-76.92421 -91.73127,-89.04807 -25.75964,-7.36659 -55.44405,-6.95788 -80.36392,1.1065 -6.04072,1.95486 -24.61091,10.47938 -27.96799,12.83853 -1.22361,0.85988 3.38152,5.94144 24.99292,27.57857 C 481.56403,437.06399 493.94897,449 494.515,449 c 0.56604,0 4.83429,-3.825 9.485,-8.5 4.65071,-4.675 8.94134,-8.5 9.53473,-8.5 0.59339,0 2.57447,3.09152 4.4024,6.87003 3.31286,6.84803 3.34098,6.87395 8.77816,8.09074 33.8166,7.56782 56.65102,40.89049 51.36523,74.95819 -3.99487,25.74756 -23.03785,47.15142 -48.58052,54.60336 -7.43182,2.16819 -24.73308,2.46663 -32.5,0.5606 -12.72491,-3.12273 -26.93877,-11.66491 -35.47585,-21.32012 -5.24082,-5.92723 -12.72776,-20.6131 -14.51988,-28.48122 l -1.1886,-5.21842 -8.65783,-2.66877 c -4.76181,-1.46782 -8.86028,-2.84697 -9.1077,-3.06477 -0.24742,-0.2178 4.45502,-5.31613 10.44986,-11.32962 5.99484,-6.01349 10.69728,-11.14951 10.44986,-11.41339 -0.24742,-0.26387 -12.11849,-12.19157 -26.38016,-26.506 -21.77248,-21.85303 -26.16945,-25.83016 -27.42176,-24.80342 -1.9829,1.62572 -10.45512,19.55206 -13.10216,27.72281 -4.65829,14.37899 -6.34128,25.6691 -6.33535,42.5 0.005,12.92483 0.43584,17.91109 2.24396,25.94333 4.26112,18.92919 11.1743,35.36341 21.15347,50.28669 6.60874,9.883 26.13676,29.45872 35.89214,35.97981 20.38547,13.6269 42.257,21.42305 66.5,23.70408 7.86842,0.74034 28.16675,-0.59401 37.51214,-2.46593 z M 522.84907,496.25 c -4.87645,-19.6625 -9.00152,-36.16736 -9.16682,-36.67746 -0.16531,-0.51011 -4.49538,3.25539 -9.62239,8.36778 l -9.32184,9.29524 -50.33447,-50.36778 -50.33447,-50.36778 -0.68691,-24.65808 -0.68691,-24.65809 -32.19492,-32.18349 -32.19493,-32.1835 -1.29641,30.96821 -1.29641,30.96821 -6.1063,0.59192 c -3.35846,0.32556 -15.78129,1.07811 -27.60629,1.67235 -11.825,0.59423 -23.03785,1.3179 -24.91744,1.60817 l -3.41745,0.52775 31.79084,31.80248 31.79083,31.80248 24.38759,0.41484 24.38759,0.41485 48.68513,48.45595 c 26.77682,26.65077 49.59191,49.54774 50.7002,50.88215 l 2.01507,2.4262 -9.38669,8.8238 c -5.16268,4.85309 -9.19521,8.85176 -8.96118,8.88594 0.23403,0.0342 16.17551,4.26733 35.42551,9.40701 19.25,5.13968 35.49845,9.38672 36.10767,9.43786 0.65006,0.0546 -2.55522,-14.67626 -7.7586,-35.65701 z"
         id="path2" />
    </g>
    <path
       style="fill:#bd0d00;fill-opacity:1;stroke-width:1.15837"
       d="m 397.53167,121.58824 c -35.81323,0.15087 -71.72376,6.70018 -104.45701,21.5181 -12.19664,5.69141 -25.59818,9.9747 -36.13122,18.52714 -1.85939,5.06039 5.37529,8.39824 7.59276,12.29384 10.54283,12.30319 23.62386,22.51844 33.07467,35.6858 1.01593,3.13876 -1.00548,11.22396 4.86424,9.02715 37.92342,-18.45911 80.83567,-27.65316 122.66041,-22.18463 71.63187,8.26559 136.62611,57.326 163.85121,124.20762 10.35146,24.94325 16.83596,51.7137 15.373,78.9838 2.0265,56.65657 -24.24999,113.58959 -66.3584,151.49046 -49.04009,45.55512 -121.39963,64.23323 -185.92495,47.99184 -64.79857,-15.19532 -120.59673,-64.57983 -143.84385,-126.81509 -9.39599,-22.95315 -13.00929,-47.92566 -12.66692,-72.82785 -0.93484,-34.0268 8.67709,-67.71888 24.0362,-97.97963 -0.27535,-6.00139 -9.00197,-0.47291 -12.08824,-4.87557 -14.96221,-12.60462 -27.04436,-28.57195 -42.70135,-40.27602 -5.75048,-1.4062 -6.59799,7.18719 -9.33937,10.48191 -14.31313,26.50925 -24.4282,55.12726 -29.77614,84.78399 -4.51833,25.41211 -4.10225,51.50573 -2.64241,77.19112 7.40278,75.16186 47.49432,146.23093 107.69346,191.78796 42.0165,32.00075 93.15541,52.88124 145.98075,56.74824 23.70378,-0.12087 47.72742,1.43453 71.16515,-2.78733 55.64469,-10.34957 108.49679,-36.82988 148.192,-77.45542 45.3514,-44.60339 74.73375,-105.44818 80.90254,-168.78577 2.06108,-32.96462 1.73223,-66.58622 -7.59679,-98.5371 -13.21523,-50.29383 -40.0617,-97.34287 -78.89895,-132.22958 -33.63455,-33.34618 -77.1216,-55.96691 -122.71871,-67.96951 -22.91129,-5.90844 -46.60143,-8.40499 -70.24208,-7.99547 z"
       id="path4" />
    <path
       style="fill:#000000;fill-opacity:1;stroke-width:1.15837"
       d="m 215.55656,151.14706 c -3.13038,19.78999 -1.55083,40.15379 -4.21267,59.99321 -19.64018,1.93393 -39.45444,1.77318 -59.06108,4.26697 -4.27052,5.22171 7.74035,10.07754 10.30564,14.86875 17.77912,17.37049 34.88818,35.74446 53.08801,52.48647 15.61528,0.33227 31.35349,0.0468 47.01585,0.14251 33.2226,33.36732 66.79763,66.38891 99.60633,100.16517 -5.22145,6.32179 -12.43205,11.17285 -16.93212,17.92986 4.74406,4.50596 13.2252,3.96938 19.39332,6.53518 17.58616,4.11529 34.82817,10.37786 52.70849,12.91505 5.69798,-1.66094 0.62451,-9.05694 0.66198,-12.95851 -4.85458,-20.15883 -9.21002,-40.50904 -15.16198,-60.36049 -4.20838,-2.90462 -7.5369,4.34132 -10.79186,6.20361 -4.50548,3.18637 -8.98284,13.71929 -13.44746,5.18415 -31.66909,-31.75369 -63.33819,-63.50738 -95.00729,-95.26107 -0.86404,-16.36125 -0.23499,-33.05482 -2.00453,-49.21493 -21.49041,-21.04319 -42.25778,-43.22003 -64.19686,-63.55976 -0.72641,-0.60006 -1.30917,0.44263 -1.96377,0.66383 z"
       id="path5" />
    <path
       style="fill:#f15b58;fill-opacity:1;stroke-width:1.15837"
       d="m 397.11991,120.24434 c -36.69186,-0.53565 -73.2825,7.04076 -106.7312,22.136 -11.38062,5.6474 -24.65142,9.09649 -33.87966,18.18527 -3.6571,5.77955 4.52922,10.45463 7.2013,14.74445 10.48706,11.81588 22.05592,22.42749 31.50685,35.09266 -0.20326,4.73539 2.55101,11.94602 8.5113,9.36877 24.33475,-10.32557 49.66475,-19.53452 76.09356,-21.64898 28.98715,-0.97192 58.68159,-1.12124 86.13215,9.73898 60.14611,21.23676 110.22118,71.10794 128.0383,132.82347 9.45203,27.10185 9.65125,56.1845 7.3084,84.42138 -8.88925,78.83566 -68.97011,148.98054 -145.60858,169.65936 -53.23511,15.81495 -112.4729,8.02098 -159.9515,-21.0207 -54.91913,-33.22023 -94.71956,-93.63608 -97.68879,-158.57758 -0.78029,-27.90501 0.2759,-56.6983 10.66063,-83.02941 3.06352,-10.86545 10.32359,-20.64843 11.45249,-31.95475 -1.51462,-5.79774 -9.39366,-1.91169 -12.59502,-6.29864 -14.59723,-12.17705 -26.58016,-27.45179 -41.85973,-38.73756 -6.6061,-2.41794 -9.04491,6.8045 -11.97964,10.8371 -21.73579,41.4063 -34.4471,87.88678 -33.30295,134.84386 -0.45678,42.69795 9.05286,85.44003 28.75316,123.40471 40.77156,83.03268 124.93345,143.22914 216.9178,153.89633 27.27955,0.79384 54.75738,1.27122 81.92556,-1.6677 67.88434,-12.2804 130.98081,-49.98703 173.04549,-104.81094 31.63219,-40.99326 52.56395,-90.78719 57.51162,-142.4468 0.42565,-32.92952 2.74348,-66.71257 -7.13575,-98.63348 -13.1728,-48.86853 -38.01469,-95.3375 -75.38687,-129.96607 -36.75566,-38.39668 -86.18421,-63.41998 -137.6991,-75.12669 -20.10699,-4.27061 -40.7294,-5.40838 -61.23982,-5.23304 z"
       id="path6" />
  </g>
</svg>
